<?xml version="1.0" encoding="UTF-8"?>
<svg id="Layer_2" data-name="Layer 2" xmlns="http://www.w3.org/2000/svg" viewBox="0 0 102.62 64.88">
  <defs>
    <style>
      .cls-1 {
        fill: #fff;
      }
    </style>
  </defs>
  <g id="Layer_1" data-name="Layer 1">
    <g>
      <circle class="cls-1" cx="75.06" cy="61.21" r="3.67"/>
      <path class="cls-1" d="M26.8,64.87c-2.02,0-3.67-1.64-3.67-3.67s1.64-3.67,3.67-3.67,3.67,1.64,3.67,3.67-1.64,3.67-3.67,3.67Z"/>
      <path class="cls-1" d="M33.74,45.28l4.95-5.08c.63-.64.62-1.67-.02-2.3l-21.12-21.12c-.64-.64-1.67-.64-2.31,0l-10.82,10.66c-.64.63-1.67.63-2.31,0l-1.64-1.63c-.64-.64-.64-1.67,0-2.31l14.64-14.8c.64-.64,1.68-.65,2.32,0l32.72,32.51c.64.64,1.67.63,2.31,0L85.08,8.67c.64-.64,1.68-.64,2.32,0l14.74,14.74c.64.64.64,1.67,0,2.31l-1.68,1.69c-.64.64-1.67.65-2.31.01l-10.82-10.66c-.64-.63-1.67-.63-2.31,0l-21.12,21.12c-.63.63-.64,1.66-.02,2.3l4.95,5.08c.63.64.62,1.67-.02,2.3l-16.38,16.38c-.64.64-1.68.64-2.32,0l-16.38-16.38c-.63-.63-.64-1.66-.02-2.3ZM52.33,55.99l8.52-8.52c.58-.58.58-1.51,0-2.08l-1.17-1.17c-.58-.58-1.51-.58-2.08,0l-5.26,5.26c-.58.58-1.51.58-2.08,0l-5.26-5.26c-.58-.58-1.51-.58-2.08,0l-1.17,1.17c-.58.58-.58,1.51,0,2.08l8.52,8.52c.58.58,1.51.58,2.08,0Z"/>
      <path class="cls-1" d="M35.11,17.95L50.13.53c.61-.71,1.71-.71,2.32,0l14.98,17.47c.55.64.48,1.59-.15,2.15l-1.91,1.67c-.64.56-1.6.49-2.16-.14l-10.77-12.36c-.61-.7-1.7-.7-2.31,0l-10.77,12.35c-.56.64-1.53.7-2.17.14l-1.95-1.73c-.63-.55-.69-1.51-.14-2.14Z"/>
      <rect class="cls-1" x="18.82" y="27.23" width="5.8" height="16.41" rx="1.08" ry="1.08" transform="translate(12.02 75.85) rotate(-135)"/>
      <rect class="cls-1" x="79.96" y="25.23" width="16.41" height="5.8" rx="1" ry="1" transform="translate(130.61 110.37) rotate(-135)"/>
      <rect class="cls-1" x="72.66" y="32.53" width="16.41" height="5.8" rx=".98" ry=".98" transform="translate(112.97 117.67) rotate(-134.99)"/>
      <rect class="cls-1" x="11.28" y="19.65" width="5.72" height="16.41" rx="1" ry="1" transform="translate(4.46 57.56) rotate(-135.02)"/>
    </g>
  </g>
</svg>